<?xml version="1.0" encoding="UTF-8" standalone="no"?>
<!DOCTYPE svg PUBLIC "-//W3C//DTD SVG 1.1//EN" "http://www.w3.org/Graphics/SVG/1.1/DTD/svg11.dtd">
<svg xmlns="http://www.w3.org/2000/svg" webdriver="true">
<metadata>Generated by IcoMoon</metadata>
<defs>
<font id="shoper" horiz-adv-x="1024">
<font-face units-per-em="1024" ascent="960" descent="-64"/>
<missing-glyph horiz-adv-x="1024"/>
<glyph unicode=" " d="" horiz-adv-x="512"/>
<glyph unicode="" d="M388.74 931.802l-33.914-141.864h-3.464l-35.572 141.864h-55.228l65.258-214.198v-140.694h54.802v147.26l63.79 207.63zM497.242 621.536c-3.486 3.93-5.206 9.52-5.206 16.722v142.586c0 5.716 1.87 10.348 5.568 13.856 3.718 3.464 8.522 5.226 14.47 5.226 6.396 0 11.602-1.742 15.534-5.226 3.974-3.528 5.992-8.14 5.992-13.856v-142.586c0-7.034-1.912-12.538-5.76-16.552-3.932-4.016-9.18-6.034-15.768-6.034-6.44 0-11.346 1.996-14.832 5.866zM461.606 827.338c-13.11-12.048-19.72-28.198-19.72-48.428l0.064-135.764c0-22.206 6.354-39.906 19.146-53.060 12.728-13.176 29.812-19.762 51.126-19.762 22.078 0 39.438 6.396 52.082 19.102 12.558 12.772 18.912 30.346 18.912 52.826v135.148c0 19.976-6.418 36.294-19.252 48.918-12.9 12.664-29.41 19.018-49.534 19.018-22.12 0-39.758-6.036-52.826-17.998zM714.774 838.706v-198.684c-4.632-5.736-9.584-10.434-15.024-14.090-5.504-3.676-10.030-5.524-13.6-5.524-4.59 0-7.862 1.38-9.88 4.164-2.062 2.74-3.082 7.226-3.082 13.472v200.662h-48.62v-218.808c0-15.576 2.784-27.264 8.48-35.084 5.736-7.736 14.216-11.644 25.456-11.644 9.158 0 18.552 2.784 28.284 8.33 9.69 5.546 19.018 13.706 27.986 24.31v-28.92h48.662v261.818h-48.662zM598.602 283.9c-3.528 0-6.928-0.914-10.306-2.592-3.38-1.742-6.716-4.336-10.030-7.97v-163.092c3.974-4.27 7.82-7.352 11.538-9.18 3.72-1.89 7.606-2.846 11.708-2.846 5.95 0 10.39 1.826 13.154 5.482 2.826 3.676 4.23 9.712 4.23 18.082v135.128c0 8.84-1.722 15.534-5.25 20.144-3.464 4.526-8.5 6.842-15.044 6.842zM777.504 282.922c-7.736 0-13.302-2.36-16.638-7.096-3.38-4.74-5.078-12.6-5.078-23.566v-26.498h42.966v26.498c0 10.966-1.678 18.826-5.058 23.566-3.4 4.74-8.692 7.096-16.192 7.096zM907.702 384.518c0 63.218-51.87 114.492-115.832 114.492-86.74 3.612-175.372 5.334-265.726 5.334-4.696 0-9.434 0-14.152 0-4.738 0-9.436 0-14.174 0-90.31 0-178.964-1.722-265.748-5.334-63.94 0-115.768-51.276-115.768-114.492-3.846-50.086-5.546-100.192-5.398-150.214-0.15-50.086 1.53-100.106 5.398-150.298 0-63.154 51.828-114.428 115.768-114.428 91.266-3.91 184.702-5.504 279.942-5.356 95.198-0.15 188.592 1.466 279.858 5.356 63.982 0 115.832 51.274 115.832 114.428 3.846 50.192 5.482 100.212 5.398 150.298 0.086 50.022-1.552 100.106-5.398 150.214zM286.638 60.352h-54.802v303.34h-56.694v51.53h168.212v-51.53h-56.716c0 0 0-303.338 0-303.338zM481.602 60.352h-48.682v28.942c-8.946-10.688-18.296-18.784-27.942-24.352-9.732-5.546-19.168-8.33-28.284-8.33-11.24 0-19.678 3.89-25.416 11.666-5.76 7.798-8.564 19.486-8.564 35.082v218.764h48.662v-200.64c0-6.184 1-10.688 3.082-13.472 2.020-2.804 5.334-4.186 9.882-4.186 3.526 0 8.032 1.826 13.558 5.546 5.524 3.654 10.498 8.33 15.024 14.068v198.684h48.682c0 0 0-261.774 0-261.774zM668.982 114.582c0-18.592-3.782-32.832-11.41-42.712-7.672-9.924-18.658-14.832-33.106-14.832-9.52 0-17.956 1.912-25.478 5.802-7.416 3.826-14.322 9.668-20.718 17.638v-20.124h-49.15v354.892h49.13v-114.238c6.586 7.99 13.514 14.068 20.866 18.19 7.374 4.186 14.832 6.246 22.398 6.246 15.384 0 27.178-5.568 35.296-16.746 8.076-11.198 12.154-27.476 12.154-48.832l0.020-145.284zM848.86 185.13h-93.074v-49.428c0-13.726 1.552-23.29 4.802-28.602 3.208-5.334 8.67-7.97 16.384-7.97 8.096 0 13.77 2.252 16.978 6.756 3.23 4.504 4.802 14.386 4.802 29.812v18.212h50.086v-19.678c0-26.818-6.1-47.026-18.296-60.626-12.198-13.578-30.452-20.336-54.654-20.336-21.78 0-38.928 7.204-51.446 21.568-12.516 14.428-18.806 34.192-18.806 59.394v117.51c0 22.736 6.864 41.246 20.634 55.524 13.77 14.344 31.514 21.442 53.294 21.442 22.248 0 39.376-6.61 51.34-19.846s17.914-32.256 17.914-57.12v-66.618h0.042z"/>
<glyph unicode="" d="M528.862 612.442c-30.090 5.652-47.068 27.942-67.426 46.408-5.546 5.036-11.986 13.898-19.806 7.778-8.564-6.672 0-14.26 3.91-20.294 15.49-23.928 32.832-46.112 36.166-76.69 1.912-17.574 19.018-24.374 36.336-21.718 19.168 2.954 27.774 16.128 28.262 33.128-0.404 15.11-4.952 29.048-17.446 31.386zM738.532 617.796c-23.098 0.51-33.064 10.794-42.052 30.472-36.102 78.984-99.556 120.804-185.572 120.548-86.168-0.254-148.98-43.138-184.574-122.1-8.628-19.126-18.402-28.304-40.268-28.836-44.582-1.084-64.79-23.12-63.834-67.83 0.744-34.764 3.4-69.486 5.908-104.208 6.098-84.15 11.432-168.36 19.402-252.34 4.1-43.286 30.218-64.684 73.396-65.448 39.142-0.68 78.326-0.318 117.49-0.254 45.008 0.064 45.558 0.68 45.708 44.836 0.15 48.746-0.128 97.492 0.574 146.22 0.254 18.020 3.486 37.568 26.606 37.866 24.076 0.318 25.416-19.294 25.522-37.528 0.15-26.116 0.042-52.21 0.042-78.326 0.064 0 0.126 0 0.192 0 0-28.73 0.404-57.46-0.15-86.146-0.34-18.592 7.48-27.052 26.392-26.86 48.746 0.49 97.492-0.636 146.22 0.616 36.784 0.956 61.39 24.31 66 61.56 3.74 30.174 5.63 60.604 7.798 90.97 6.396 89.356 13.558 178.688 18.296 268.128 2.36 44.646-19.38 67.68-63.090 68.658zM511.266 430.566c-83.108 1.126-151.32 70.548-150.32 152.998 1.020 83.17 69.72 150.872 152.722 150.448 83.278-0.426 149.788-68.446 149.406-152.744-0.404-83.788-68.956-151.828-151.808-150.702z"/>
<glyph unicode="" d="M296.050 340.020c-53.018 0-96.026-42.988-96.026-95.986s43.010-95.986 96.026-95.986c52.998 0 95.986 42.988 95.986 95.986s-43.010 95.986-95.986 95.986zM296.050 208.038c-19.868 0-35.998 16.15-35.998 35.996s16.15 35.996 35.998 35.996c19.868 0 35.976-16.15 35.976-35.996s-16.128-35.996-35.976-35.996zM847.968 651.964h-239.994v-263.942h-23.99v311.944c0 26.392-21.59 47.982-47.982 47.982h-359.968c-26.392 0-47.982-21.59-47.982-47.982v-359.948c0-21.25 14.11-39.184 33.318-45.432 20.506 54.484 73.078 93.434 134.658 93.434 62.538 0 115.748-40.162 135.574-95.986h160.774c19.804 55.822 73.014 95.986 135.552 95.986 62.558 0 115.788-40.162 135.616-95.986h32.362v143.988l-47.938 215.938zM655.976 483.986v119.976h154.486l24.034-119.976h-178.518zM727.95 340.020c-52.996 0-95.986-42.988-95.986-95.986s42.988-95.986 95.986-95.986c53.018 0 96.006 42.988 96.006 95.986s-42.966 95.986-96.006 95.986zM727.95 208.038c-19.846 0-35.954 16.15-35.954 35.996s16.128 35.996 35.954 35.996 36.018-16.15 36.018-35.996c0-19.846-16.172-35.996-36.018-35.996z"/>
<glyph unicode="" d="M894.206 519.408c12.198 11.964 8.394 23.63-8.5 26.116l-217.872 31.556c-16.914 2.528-36.996 17-44.582 32.298l-97.43 196.708c-7.63 15.3-19.996 15.3-27.668 0l-97.366-196.708c-7.522-15.32-27.646-29.77-44.688-32.298l-217.808-31.576c-16.936-2.464-20.698-14.152-8.414-26.116l157.48-153.082c12.282-11.856 19.952-35.424 17.128-52.274l-37.166-216.236c-3.016-16.894 7.034-24.054 22.226-16.172l194.838 102.274c15.13 7.884 40.056 7.884 55.27 0l194.648-102.274c15.322-7.884 25.246-0.722 22.418 16.172l-37.208 216.236c-2.89 16.85 4.846 40.438 17.062 52.274l157.63 153.104zM682.644 421.49c-30.174-29.302-46.366-78.836-39.312-120.316l16-93.158-83.64 43.944c-23.63 12.26-47.664 14.812-63.728 14.812s-40.098-2.55-63.408-14.684l-83.936-44.052 15.938 93.010c7.056 41.862-9.202 91.31-39.502 120.592l-67.574 65.662 93.712 13.6c42.798 6.354 84.084 36.294 102.932 74.586l41.862 84.552 41.988-84.744c18.826-38.1 59.988-68.020 102.402-74.374l94.072-13.62-67.808-65.81z"/>
<glyph unicode="" d="M346.964 637.834c-31.874 31.852-62.834 62.75-95.538 95.41 67.936 61.688 148.854 95.284 243.456 100.808 0-45.326 0-88.972 0-133.746-56.29-6.076-106.694-25.988-147.92-62.474zM125.968 464.372c5.27 94.328 38.78 174.948 99.64 243.012 32.002-32.002 62.9-62.9 95.412-95.412-34.722-40.182-55.632-90.098-60.988-147.6-44.284 0-87.782 0-134.064 0zM677.778 640.64c-41.458 35.424-92.054 54.76-148.62 59.904 0 44.752 0 88.356 0 133.448 94.222-5.25 174.716-39.036 242.374-99.682-31.386-31.366-61.73-61.688-93.754-93.668zM320.572 281.136c-31.874-31.852-61.922-61.858-93.646-93.562-62.092 68.51-95.178 149.322-101.126 243.86 44.22 0 87.676 0 133.428 0 5.418-55.312 23.862-106.886 61.348-150.298zM768.028 464.734c-5.524 57.226-26.562 107.906-63.302 149.724 31.342 31.236 61.476 61.264 93.264 92.946 61.348-67.064 94.178-148.068 100.212-242.672-43.010 0-85.232 0-130.174 0zM345.286 255.574c41.438-36.486 92.096-57.672 149.64-63.494 0-43.37 0-85.722 0-129.836-94.242 5.226-174.862 38.908-242.544 99.788 31.28 31.492 61.496 61.922 92.904 93.54zM768.472 432.010c43.476 0 85.7 0 129.474 0-5.078-94.306-38.61-174.928-99.278-242.862-30.77 30.832-60.604 60.732-91.46 91.672 36.188 41.5 56.164 93.158 61.264 151.192zM529.606 191.866c57.586 5.1 108.522 25.308 150.086 61.326 30.43-30.452 60.244-60.308 91.438-91.544-66.362-60.328-147.134-93.562-241.524-99.702 0 43.244 0 85.402 0 129.92z"/>
<glyph unicode="" d="M723.254 490.83l-317.342 317.152-121.974-121.994 239.95-240.014-239.952-239.952 117.914-118 321.4 321.38c22.398 22.356 22.398 59.032 0 81.428z"/>
<glyph unicode="" d="M943.592 479.014l-229.75 229.624-88.314-88.336 173.736-173.78-173.736-173.736 85.36-85.444 232.706 232.706c16.236 16.192 16.236 42.754 0 58.968zM313.114 708.638l-232.706-232.706c-16.234-16.192-16.234-42.732 0-58.948l229.73-229.624 88.314 88.314-173.694 173.8 173.694 173.738-85.338 85.424z"/>
<glyph unicode="" d="M929.588 180.5l-147.174 147.174c28.412 53.57 44.582 114.832 44.582 179.9 0.042 210.456-168.658 381.070-376.714 381.070-208.098 0.064-376.758-170.634-376.758-381.070-0.042-210.52 168.68-381.134 376.778-381.134 65.874 0 127.794 17.192 181.62 47.26l145.412-145.432c27.88-27.88 73.588-27.88 101.51 0l50.744 50.744c27.858 27.922 27.858 73.63 0 101.488zM450.28 217.962c-158.14 0-286.318 129.664-286.318 289.57 0 159.926 128.134 289.654 286.318 289.654 158.056 0 286.232-129.686 286.232-289.612 0.042-159.946-128.178-289.612-286.234-289.612zM486.192 655.406h-71.76v-107.65h-107.608v-71.76h107.608v-107.63h71.76v107.63h107.63v71.76h-107.63v107.65z"/>
<glyph unicode="" d="M126.222 125.738h771.576v106.674h-771.576c0 0 0-106.674 0-106.674zM126.222 384.028h771.576v106.674h-771.576v-106.674zM126.222 749.012v-106.674h771.576v106.674c-0.020 0-771.576 0-771.576 0z"/>
<glyph unicode="" d="M967.73 392.76h-193.328c-15.172 0-27.602-12.432-27.602-27.626v-82.852h-110.498v82.852c0 15.194-12.432 27.626-27.626 27.626h-82.874v110.476h82.874c15.194 0 27.626 12.41 27.626 27.626v193.33c0 15.194-12.432 27.626-27.626 27.626h-193.33c-15.194 0-27.604-12.432-27.604-27.626v-193.33c0-15.194 12.41-27.626 27.604-27.626h82.852v-110.476h-82.852c-15.194 0-27.604-12.432-27.604-27.626v-82.852h-110.498v82.852c0 15.194-12.43 27.626-27.626 27.626h-193.35c-15.172 0-27.626-12.432-27.626-27.626v-193.328c0-15.194 12.452-27.626 27.626-27.626h193.33c15.194 0 27.626 12.432 27.626 27.626v82.852h110.498v-82.852c0-15.194 12.41-27.626 27.604-27.626h193.33c15.194 0 27.626 12.432 27.626 27.626v82.852h110.498v-82.852c0-15.194 12.432-27.626 27.602-27.626h193.328c15.172 0 27.626 12.432 27.626 27.626v193.328c0.020 15.194-12.432 27.626-27.602 27.626z"/>
<glyph unicode="" d="M674.698 478.568c0 89.716-72.994 162.688-162.688 162.688s-162.688-72.972-162.688-162.688c0-83.702 63.728-152.020 145.134-160.924v240.95l177.222-110.032c1.826 9.754 3.018 19.74 3.018 30.004zM512.010 835.86c-197.324 0-357.292-159.966-357.292-357.292 0-191.396 150.64-347.198 339.762-356.422v77.222c-146.26 9.136-262.54 130.684-262.54 279.222 0 154.422 125.65 280.072 280.092 280.072 154.422 0 280.092-125.67 280.092-280.072 0-33.15-6.076-64.832-16.702-94.35l66.98-41.586c17.276 41.948 26.902 87.782 26.902 135.956-0.020 197.26-159.966 357.25-357.292 357.25zM556.23 448.33v-339.186l92.436 84.51 71.568-133.49 65.15 37.4-72.398 133.49 126.074 40.034-282.834 177.242z"/>
<glyph unicode="" d="M509.716 82.006c-34.892-1.89-69.38 1.678-102.508 12.516-45.112 14.746-78.114 43.222-93.33 89.524-6.31 19.188-5.1 20.506 15.214 23.716 13.026 2.062 26.052 4.27 38.888 7.226 7.63 1.764 11.326-0.636 13.43-7.798 6.822-23.246 19.976-41.564 42.032-52.72 15.172-7.672 31.682-10.73 48.278-12.77 39.396-4.846 78.39-3.782 116.236 9.902 24.798 8.966 42.732 24.948 47.174 51.828 4.61 27.88-5.972 50.362-28.538 67.086-20.932 15.512-45.178 23.97-69.764 31.28-42.606 12.644-86.846 20.060-127.476 38.866-32.448 15.024-60.88 35.89-74.46 70.208-14.854 37.57-10.264 74.246 13.388 107.692 16.766 23.692 39.354 39.778 66.702 49.298 1.976 0.68 4.93 0.596 4.994 3.144 0.106 3.974-3.718 4.93-6.524 6.076-16.32 6.672-31.194 15.662-44.050 27.73-33.978 31.896-43.584 70.274-30.896 114.938 12.474 43.902 44.412 67.234 85 81.196 40.948 14.068 83.532 15.512 126.032 11.814 45.134-3.93 87.654-16.192 120.528-50.404 14.090-14.662 23.8-31.98 29.728-51.274 3.506-11.412 1.402-14.216-10.010-15.98-16.212-2.508-32.768-2.38-48.874-6.162-5.78-1.36-9.138 1.552-10.774 7.522-8.626 31.428-31.45 46.75-61.56 53.762-35.104 8.202-70.188 7.586-105.144-0.446-22.1-5.080-42.754-13.94-53.124-35.658-13.918-29.112-4.57-56.758 24.096-75.734 19.528-12.92 41.416-20.422 63.834-26.414 43.646-11.666 88.462-19.806 129.792-38.718 30.812-14.088 58.414-32.746 74.586-64.47 11.772-23.098 13.048-47.558 8.288-71.994-6.716-34.382-25.648-61.412-55.164-80.684-8.096-5.27-16.746-9.35-25.924-12.39-2.572-0.85-5.972-1.996-5.802-5.462 0.15-3.018 3.486-2.932 5.652-4.016 37.568-18.912 67.956-45.24 75.308-88.526 9.074-53.442-9.158-102.148-57.586-132.768-30.918-19.528-65.514-27.306-101.234-30.706-12.070-1.19-24.31-0.234-36.442-0.234zM642.442 453.62c-0.17 23.778-15.704 42.308-38.078 56.098-22.014 13.558-46.75 20.358-71.186 28.262-37.718 12.198-72.058 6.056-103.402-16.106-35.998-25.456-49.746-83.342 0.702-116.852 17.382-11.538 36.762-19.040 56.546-24.778 22.036-6.418 43.944-14.62 68.062-9.542 11.518 2.422 23.226 4.1 34.148 8.394 30.876 12.112 51.956 33.978 53.208 74.524z"/>
<glyph unicode="" d="M521.148 763.716c-215.706 0-390.632-140.544-390.632-314.092 0-76.264 33.936-146.368 90.46-200.808l-108.926-116.534 244.498 32.788c50.15-18.7 105.846-29.516 164.6-29.516 215.938 0 390.802 140.588 390.802 314.092 0 173.524-174.864 314.070-390.802 314.070zM576.12 253.49h-107.8v92.99h107.8v-92.99zM670.236 526.572c0-68.954-45.942-98.492-106.736-113.302l-6.586-35.020h-66.214l-13.62 91.374 4.378 4.93c63.472 5.482 85.89 20.25 85.89 43.796v0.532c0 18.616-14.79 30.132-41.012 30.132-25.776 0-54.208-13.154-79.9-36.124l-54.76 72.228c33.342 33.362 78.774 57.48 141.778 57.48 80.408 0 136.804-43.774 136.804-114.938v-1.084z"/>
<glyph unicode="" d="M419.426 157.018c0-19.294-15.642-34.934-34.934-34.934s-34.934 15.64-34.934 34.934c0 19.294 15.642 34.934 34.934 34.934 19.294 0 34.934-15.64 34.934-34.934zM674.422 157.018c0-19.294-15.64-34.934-34.934-34.934s-34.934 15.64-34.934 34.934c0 19.294 15.64 34.934 34.934 34.934s34.934-15.64 34.934-34.934zM511.988 915.504c-200.492 0-363.008-162.518-363.008-363.008s162.516-363.008 363.008-363.008 363.008 162.518 363.008 363.008c0.020 200.468-162.516 363.008-363.008 363.008zM511.988 224.89c-180.92 0-327.606 146.664-327.606 327.606 0 180.92 146.666 327.606 327.606 327.606s327.606-146.664 327.606-327.606-146.664-327.606-327.606-327.606zM511.988 175.292c-53.784 0-97.388-43.604-97.388-97.388s43.604-97.386 97.388-97.386 97.388 43.604 97.388 97.386-43.582 97.386-97.388 97.386zM511.988 10.16c-37.42 0-67.744 30.322-67.744 67.744s30.322 67.744 67.744 67.744 67.744-30.322 67.744-67.744-30.322-67.744-67.744-67.744zM511.988 891.596c-187.296 0-339.102-151.828-339.102-339.102s151.83-339.102 339.102-339.102 339.102 151.828 339.102 339.102c0.020 187.274-151.808 339.102-339.102 339.102zM511.988 246.458c-169.020 0-306.038 137.018-306.038 306.038s137.018 306.038 306.038 306.038 306.038-137.018 306.038-306.038-137.018-306.038-306.038-306.038zM511.988 162.246c-46.58 0-84.34-37.76-84.34-84.34s37.762-84.34 84.34-84.34 84.34 37.76 84.34 84.34-37.74 84.34-84.34 84.34zM511.988 19.236c-32.406 0-58.67 26.264-58.67 58.67s26.264 58.67 58.67 58.67 58.67-26.264 58.67-58.67-26.264-58.67-58.67-58.67z"/>
<glyph unicode="" d="M830.564 173.614v434.406h57.948l-143.35 143.33-143.35-143.33h54.994v-434.406h-57.928v318.574h-173.758v-318.574h-57.948v173.758h-173.736v-173.758h-86.89v-28.962h810.908v28.962z"/>
<glyph unicode="" d="M842.464 754.176v149.726h-63.792v-149.726h-149.746v-63.048h149.746v-150.872h63.79v150.872h149.746v63.048zM573.274 316.794c-9.18 12.814-19.952 24.798-32.322 35.954-12.39 11.178-24.948 22.376-37.698 33.574l-43.072 33.532c-6.396 5.61-13.154 12.198-20.336 19.784s-10.774 18.168-10.774 31.748c0 13.58 3.592 24.776 10.774 33.574 7.182 8.776 14.748 17.148 22.738 25.16 12.772 9.562 25.138 19.74 37.102 30.536 11.964 10.774 22.738 22.758 32.32 35.932 9.562 13.174 17.126 28.156 22.736 44.942 5.568 16.766 8.372 36.336 8.372 58.712 0 22.334-3.208 42.33-9.562 59.904-6.396 17.574-13.982 32.938-22.736 46.112-8.776 13.196-17.956 24.372-27.54 33.574-9.562 9.18-17.956 16.552-25.138 22.184h74.204l76.606 41.884h-246.538c-32.724 0-68-3.996-105.908-11.964-37.908-7.99-74.014-25.946-108.288-53.846-25.542-22.332-44.688-47.664-57.438-75.968-12.772-28.326-19.126-56.438-19.126-84.36 0-23.142 4.356-46.068 13.154-68.806 8.754-22.736 21.526-42.904 38.272-60.434 16.746-17.552 37.484-31.704 62.24-42.478 24.712-10.774 53.040-16.15 84.956-16.15 6.376 0 12.728 0.17 19.146 0.596 6.376 0.382 12.772 0.976 19.146 1.786-3.188-7.182-5.972-14.174-8.372-20.952s-3.592-15.364-3.592-25.712c0-18.36 3.762-33.702 11.368-46.068 7.564-12.39 15.746-24.14 24.522-35.318-13.558-0.786-29.516-1.976-47.854-3.57-18.38-1.616-37.908-4.4-58.628-8.394-20.76-3.974-41.712-9.37-62.836-16.15-21.144-6.778-40.884-15.746-59.222-26.924-35.104-20.718-59.222-44.858-72.398-72.398-13.154-27.54-19.762-52.040-19.762-73.588 0-22.332 5.186-43.688 15.554-64.024s26.328-38.482 47.854-54.442c21.546-15.958 48.47-28.73 80.77-38.312 32.32-9.562 70.018-14.344 113.092-14.344 51.042 0 96.324 6.586 135.806 19.74 39.482 13.196 72.398 30.386 98.726 51.53 26.328 21.186 46.24 45.368 59.818 72.504 13.558 27.178 20.356 54.74 20.356 82.704 0 20.76-2.804 39.142-8.394 55.1-5.546 16-12.942 30.366-22.1 43.136zM346.518 523.362c-25.542 0-47.664 7.416-66.406 22.226-18.762 14.812-34.318 33.044-46.664 54.634-12.39 21.61-21.546 44.836-27.518 69.678-5.992 24.798-8.99 47.216-8.99 67.234 0 16.022 1.784 31.618 5.376 46.834 3.612 15.216 10.582 29.218 20.952 42.052 9.562 12.006 21.93 21.59 37.080 28.794 15.152 7.204 30.706 10.816 46.686 10.816 24.714 0 46.452-7.416 65.216-22.226 18.722-14.79 34.488-33.426 47.26-55.866 12.772-22.398 22.312-46.432 28.73-72.036 6.376-25.606 9.562-49.214 9.562-70.826 0-11.22-1.616-25.222-4.782-42.032-3.188-16.85-11.56-32.044-25.138-45.644-9.584-9.606-21.76-17.596-36.508-24.034-14.77-6.376-29.728-9.606-44.858-9.606zM478.734 78.818c-29.92-24.31-73.588-36.506-131.026-36.506-64.62 0-115.896 13.578-153.784 40.692-37.888 27.136-56.844 62.22-56.844 105.292 0 21.548 4.186 39.482 12.58 53.846s18.146 26.328 29.302 35.912c11.176 9.562 22.546 16.936 34.128 22.12 11.538 5.206 20.528 8.966 26.924 11.346 12.75 3.996 25.902 7.374 39.504 10.178 13.558 2.804 26.328 4.802 38.272 5.992 11.964 1.19 22.332 1.996 31.13 2.38 8.754 0.404 14.366 0.596 16.746 0.596 6.376 0 11.37 0 14.96 0 3.592 0 7.776-0.404 12.56-1.212 22.312-15.958 41.882-30.322 58.628-43.072 16.766-12.75 30.322-25.116 40.692-37.102 10.348-11.964 18.146-24.118 23.332-36.506 5.184-12.366 7.778-26.116 7.778-41.268 0-37.422-14.96-68.318-44.88-92.692z"/>
<glyph unicode="" d="M381.006 732.012c0-24.926 0-136.146 0-136.146h-99.766v-166.512h99.766v-456.89h204.91v456.89h137.486c0 0 12.876 79.834 19.102 167.13-17.914 0-155.824 0-155.824 0s0 96.856 0 113.834c0 17 22.332 39.908 44.432 39.908 22.036 0 68.572 0 111.646 0 0 22.674 0 101 0 173.334-57.524 0-122.952 0-151.786 0-215.048 0-209.968-166.66-209.968-191.544z"/>
<glyph unicode="" d="M877.23 305.978c-20.802 13.408-104.316 49.362-104.316 49.362-0.042 4.058-4.93 8.414-6.226 13.726-1.254 5.142-8.010 13.11-10.242 13.346-0.020 5.184-1.466 16.766-1.552 17.34 42.288 7.48 59.712 40.076 59.712 40.076-39.546 7.034-41.034 51.318-39.398 72.568 10.412 61.498-28.496 59.542-28.496 59.542-2.72 15.384-30.048 18.742-40.778 18.742s-80.11-5.76-67.128-80.112c1.402-21.844-1.084-63.876-39.524-70.718 0 0 17.466-32.64 59.838-40.076-0.064-0.574-1.53-12.154-1.53-17.34-2.252-0.254-9.010-8.202-10.264-13.346-1.296-5.312-6.162-9.668-6.226-13.75 0 0-83.51-35.932-104.316-49.32-11.538-7.438-12.26-11.114-12.346-22.568 121.698 0 365.112 0 365.112 0-0.064 11.39-0.808 15.086-12.326 22.524zM487.17 305.978c-20.802 13.408-104.314 49.362-104.314 49.362-0.064 4.058-4.93 8.414-6.226 13.726-1.254 5.142-0.106 13.154-3.74 13.346-2.166 0.126-4.272-0.254-6.524 0-0.022 5.184-2.464 26.668-2.444 28.262 7.63 11.602 12.452 26.774 15.81 39.778 5.906 1.806 7.544 6.672 7.544 6.672s6.566 23.204 3.486 30.558c-1.126 2.656-3.144 4.080-5.29 4.846-0.15 15.726 1.488 43.582 2.656 52.784 1.106 8.904-4.122 20.802-14.96 29.176 1.616 10.836-12.58 38.1-12.58 38.1-13.536-17.786-55.928-23.97-81.45-29.77s-35.040-24.756-33.468-37.506c1.146-9.202 2.784-37.058 2.634-52.784-2.126-0.764-4.164-2.19-5.27-4.846-3.102-7.352 3.486-30.558 3.486-30.558s1.636-4.846 7.544-6.672c3.358-13.004 8.18-28.156 15.832-39.778 0.042-1.89-2.296-23.098-2.316-28.284-2.252-0.254-4.356 0.126-6.524 0-3.634-0.192-2.486-8.224-3.74-13.366-1.296-5.312-6.162-9.668-6.226-13.75 0 0-83.51-35.932-104.314-49.32-11.538-7.438-12.26-11.114-12.346-22.568 121.698 0 365.112 0 365.112 0-0.106 11.454-0.83 15.15-12.368 22.588z"/>
<glyph unicode="" d="M513.202 694.104v0.064c-0.34 0-0.722-0.022-1.19-0.022-0.404 0-0.786 0.022-1.19 0.022v-0.064c-188.378-1-329.944-95.156-412.54-246.114 82.596-150.958 224.164-245.136 412.54-246.114v-0.064c0.404 0 0.786 0.020 1.19 0.020 0.446 0 0.85-0.020 1.19-0.020v0.064c188.422 1 330.008 95.156 412.52 246.114-82.512 150.958-224.098 245.136-412.52 246.114zM512.010 280.798c-92.394 0-167.256 74.82-167.256 167.214s74.862 167.192 167.256 167.192c92.308 0 167.256-74.82 167.256-167.192 0-92.416-74.948-167.214-167.256-167.214zM512.010 505.938c-31.918 0-57.928-25.988-57.928-57.928s26.010-57.928 57.928-57.928c31.958 0 57.928 25.988 57.928 57.928 0 31.918-25.966 57.928-57.928 57.928z"/>
<glyph unicode="" d="M602.3 830.206c0-2.23 0-4.462 0-6.694-0.234-1.212-0.596-2.402-0.68-3.612-1.806-32.3-3.592-64.62-5.398-96.92-2.062-37.378-4.144-74.756-6.206-112.134-1.806-32.554-3.612-65.108-5.398-97.664-2.062-37.25-4.144-74.524-6.184-111.774-1.658-30.452-3.23-60.902-4.886-91.352-0.424-8.010-1.020-16-1.53-24.054-32.576 0-64.812 0-97.26 0-15.066 181.514-30.090 362.754-45.178 544.524 2.082 0 3.592 0 5.080 0 54.464 0 108.926 0 163.388-0.020 1.446-0.020 2.846-0.212 4.25-0.298zM458.568 66.706c0 45.432 0 90.864 0 136.528 43.732 0 87.166 0 130.812 0 0-45.006 0-90.034 0-135.722z"/>
<glyph unicode="" d="M876.528 730.866h-477.226c-39.396 0-71.61-32.214-71.61-71.568v-249.79l108.712-3.25c0-39.354-28.050-106.908 11.346-106.908l1.616-45.708h128.326c-1.34-18.338-5.992-53.274-22.226-71.59h-36.868v-47.726h238.612v47.726h-36.846c-16.278 18.318-20.888 53.252-22.226 71.59h136.742l3.23 141.268c7.352 31.11 109.988 9.712 109.988 9.712v0 254.678c0 39.354-32.214 71.568-71.568 71.568zM838.108 394.908l-3.25-33.894h-396.816l-1.616 45.22-37.102 3.23v249.832h477.224v-253.040l-38.442-11.346zM975.148 412.822c-50.574 12.622-77.71 12.622-128.304 0-10.52-2.634-18.996-14.344-18.996-25.116 0-87.486 0-131.28 0-218.764 0-10.794 8.48-22.504 18.996-25.116 50.596-12.644 77.73-12.622 128.306 0 10.52 2.634 18.996 14.322 18.996 25.116 0 87.506 0 131.28 0 218.764 0 10.794-8.48 22.504-18.996 25.116zM980.014 164.562h-137.804v227.562h137.804c0 0 0-227.562 0-227.562zM32.152 389.424c-2.486-10.562-3.592-206.95 0-222.186 4.272-18.232 23.354-32.894 40.948-32.894 142.564 0 213.942 0 356.548 0 17.594 0 36.656 14.684 40.948 32.894 1.424 6.076 1.020 217.766-0.022 222.186-4.272 18.212-23.332 32.894-40.928 32.894-142.606 0-213.962 0-356.548 0-17.594-0.020-36.656-14.706-40.948-32.894zM411.032 397.84v-238.634h-322.846v238.634c0 0 322.846 0 322.846 0z"/>
<glyph unicode="" d="M562.054-32.020l159.52 92.456-176.606 330.24 313.794 99.086-693.524 438.254v-838.914l222.76 209.202z"/>
<glyph unicode="" d="M469.17 659.254l-317.152-317.342 121.994-121.972 240.014 239.952 239.952-239.93 118 117.914-321.38 321.38c-22.356 22.398-59.032 22.398-81.428 0z"/>
<glyph unicode="" d="M420.042 157.464h183.896v30.664h-183.894v-30.664zM420.042 96.158h62.262v-30.664h59.394v30.664h62.262v30.664h-183.894v-30.664zM511.988 830.504c-147.664 0-267.384-119.722-267.384-267.384 0-77.858 33.488-147.706 86.592-196.602 1.36-2.294 3.4-4.674 6.44-6.716 31.344-32.298 60.646-69.338 75.628-106.12 6.014-13.048 20.762-23.99 34.786-23.99h127.88c14.024 0 28.75 10.944 34.786 23.99 14.98 36.784 44.284 73.822 75.65 106.12 3.038 2.040 5.1 4.42 6.48 6.716 53.102 48.918 86.55 118.742 86.55 196.602-0.020 147.644-119.722 267.384-267.406 267.384zM617.154 405.192l-52.614 52.594-52.594-52.594-52.55 52.572-52.55-52.592-108.692 108.756h74.522l34.168-34.234 34.212 34.234h36.698l34.168-34.234 34.254 34.234h36.678l34.232-34.234 34.148 34.234h74.524l-108.606-108.736z"/>
<glyph unicode="" d="M955.726 864.95c-101.404-19.146-189.504-44.094-266.258-72.95-5.058-15.002-10.944-30.962-18.106-47.534 0 0 3.74 16.574 6.332 43.072-25.16-9.774-49.024-19.976-71.718-30.536-10.158-30.664-24.65-68.338-45.092-108.522 0 0 11.134 38.356 15.958 94.498-337.656-169.466-391.206-423.358-398.112-529.754l-0.15-24.096 0.064 24.034c-0.638-9.902-0.786-17.976-0.85-25.096-38.484-51.934-74.884-105.356-109.542-159.754l9.52-6.842c38.844 48.768 79.028 96.24 119.508 143.308 343.798 21.186 533.684 197.432 637.298 368.044-3.57 0.49-7.12 0.956-11.346 1.764-89.76 17.062-163.026 10.922-163.026 10.922 97.918 25.436 179.156 27.518 197.388 27.688 9.18 17.086 17.722 34.042 25.288 50.574-55.61 12.856-97.856 14.236-97.856 14.236 41.14 5.376 78.24 6.566 106.908 6.27 52.678 122.696 63.79 220.678 63.79 220.678zM783.602 717.202c-31.088-21.42-61.134-44.264-90.716-67.722-60.158-45.56-116.278-96.048-172.186-146.538-55.694-50.892-107.716-105.462-159.692-160.222-39.396-42.966-77.986-86.72-115.96-131.238-9.372-0.786-18.444-1.89-28.070-2.422 0 0 0 0.34-0.064 0.616l-0.17 25.010c35.062 47.494 71.462 94.242 110.922 138.336 50.382 58.054 105.568 111.816 162.346 163.644 56.438 52.252 118.084 98.79 181.132 142.754 64.302 42.372 131.11 81.196 203.678 108.416l3.826-8.712c-32.916-18.296-64.11-40.312-95.050-61.922z"/>
<glyph unicode="" d="M554.828 236.746l317.152 317.322-121.994 121.972-240.014-239.93-239.952 239.952-117.998-117.914 321.38-321.4c22.356-22.398 59.032-22.398 81.428 0z"/>
<glyph unicode="" d="M511.988 823.492c-207.376 0-375.482-168.086-375.482-375.482 0-207.418 168.106-375.502 375.482-375.502s375.482 168.086 375.482 375.502c0 207.396-168.086 375.482-375.482 375.482zM511.988 125.164c-178.306 0-322.846 144.52-322.846 322.846s144.52 322.846 322.846 322.846c178.306 0 322.846-144.52 322.846-322.846 0-178.348-144.52-322.846-322.846-322.846zM673.698 407.572c3.294-6.184 5.312-13.174 5.312-20.676 0-24.566-19.952-44.562-44.562-44.562-24.606 0-44.476 19.996-44.476 44.562 0 8.48 2.506 16.32 6.586 23.056-87.060 15.024-160.52 69.678-200.938 144.774-37.144-51.87-91.48-90.502-154.592-108.012 0.68-149.11 121.698-269.764 270.976-269.764 147.6 0 267.428 118 270.742 264.812-32.874-18.402-69.784-30.154-109.052-34.192zM389.548 342.336c-24.564 0-44.56 19.996-44.56 44.562 0 24.628 19.976 44.538 44.56 44.538 24.564 0 44.476-19.91 44.476-44.538 0-24.566-19.912-44.562-44.476-44.562zM550.728 226.548h-77.454c-14.194 0-25.84 11.644-25.84 25.84s11.644 25.84 25.84 25.84h77.454c14.196 0 25.84-11.644 25.84-25.84s-11.644-25.84-25.84-25.84z"/>
<glyph unicode="" d="M244.094 670.388l-73.354 73.312-48.896-48.894 122.228-122.206 163.026 163.070-48.832 48.896-114.174-114.174zM244.094 439.828l-73.354 73.312-48.896-48.918 122.228-122.228 163.026 163.092-48.832 48.918-114.174-114.174zM244.094 209.25l-73.354 73.312-48.896-48.874 122.228-122.228 163.026 163.048-48.832 48.918-114.174-114.174zM441.036 153.214h461.118v63.75h-461.118v-63.75zM441.036 383.774h461.118v63.75h-461.118v-63.75zM441.036 678.102v-63.75h461.118v63.75h-461.118z"/>
<glyph unicode="" d="M850.644 154.702h-55.376v263.284l-274.972 219.572-293.182-234.192v-248.664h-53.762c-14.004 0-25.16-10.434-25.16-23.226 0-12.814 11.156-23.226 25.16-23.226h677.29c13.962 0 25.16 10.412 25.16 23.226 0 12.792-11.198 23.226-25.16 23.226zM614.434 154.702h-206.312v234.172h206.312v-234.172zM519.406 707.342l331.112-272.42 47.216 43.646-378.33 309.182-393.162-322.994 46.176-42.628 346.986 285.214z"/>
<glyph unicode="" d="M511.372 88c-198.598 0.234-359.608 161.794-359.374 360.628 0.234 198.578 161.816 359.608 360.628 359.374 198.598-0.234 359.586-161.794 359.354-360.628-0.212-198.62-161.752-359.608-360.608-359.374zM349.578 205.404c47.238 22.226 90.99 41.416 133.32 63.366 20.526 10.646 37.080 11.028 57.8 0.254 42.798-22.27 87.124-41.628 133.766-63.578-6.716 53.336-12.282 103.422-19.656 153.254-2.592 17.552 0.446 30.26 13.514 43.052 25.010 24.5 48.13 50.936 72.014 76.584 10.816 11.624 21.61 23.29 34.232 36.912-53.74 10.392-103.784 20.612-154.060 29.452-15.11 2.656-24.862 8.246-32.256 22.546-21.632 41.84-45.006 82.788-67.828 124.012-2.336 4.206-5.59 7.926-9.52 13.408-25.988-47.196-51.234-91.67-74.99-136.954-7.332-13.962-16.49-20.336-31.918-23.012-50.618-8.754-100.936-19.146-154.634-29.538 36.932-39.63 70.55-77.222 105.994-113.006 13.536-13.664 16.128-26.966 13.494-44.942-7.14-49.192-12.644-98.62-19.274-151.808z"/>
<glyph unicode="" d="M280.814 247.584h-9.924c32.618 23.672 56.184 43.308 56.184 79.856 0 46.324-37.526 84.318-83.746 84.318-46.302 0-83.83-38.312-83.83-84.596 0-36.548 23.566-55.928 56.248-79.58h-9.986c-41.544 0-107.928-31.196-107.928-72.76v-45.558h284.024v45.558c0 41.544-59.584 72.76-101.042 72.76zM825.102 247.584h-9.946c32.64 23.672 56.248 43.308 56.248 79.856 0 46.324-37.548 84.318-83.788 84.318-46.302 0-83.83-38.312-83.83-84.596 0-36.548 23.566-55.928 56.27-79.58h-9.986c-41.522 0-107.884-31.196-107.884-72.76v-45.558h283.96v45.558c0 41.544-59.606 72.76-101.042 72.76zM665.816 529.8c0 41.564-59.584 72.76-101.042 72.76h-9.946c32.64 23.672 56.206 43.308 56.206 79.878 0 46.302-37.484 84.32-83.724 84.32-46.324 0-83.83-38.314-83.83-84.596 0-36.572 23.566-55.928 56.27-79.6h-9.988c-41.544 0-107.928-31.196-107.928-72.76v-45.558h283.98v45.558zM523.846 436.898h-23.652v-119.338l-111.136-64.196 11.836-20.486 111.136 64.154 111.114-64.154 11.836 20.486-111.136 64.194v119.338z"/>
<glyph unicode="" d="M735.452 789.96c-176.138 32.108-270.678 32.108-446.902 0-36.656-6.672-66.15-36.442-66.15-63.876 0-222.4 0-333.726 0-556.168 0-27.456 29.516-57.182 66.15-63.876 176.224-32.13 270.762-32.108 446.902 0.020 36.614 6.672 66.15 36.4 66.15 63.834 0 222.442 0 333.768 0 556.168 0 27.456-29.538 57.204-66.15 63.898zM722.424 240.528h-420.892v461.33h420.892v-461.33zM405.040 169.704c0-23.48-19.040-42.5-42.5-42.5-23.48 0-42.5 19.018-42.5 42.5s19.018 42.5 42.5 42.5c23.46 0 42.5-19.018 42.5-42.5zM553.788 169.704c0-23.48-19.040-42.5-42.5-42.5-23.48 0-42.5 19.018-42.5 42.5s19.018 42.5 42.5 42.5c23.46 0 42.5-19.018 42.5-42.5zM702.534 169.704c0-23.48-19.040-42.5-42.5-42.5-23.48 0-42.5 19.018-42.5 42.5s19.018 42.5 42.5 42.5c23.46 0 42.5-19.018 42.5-42.5z"/>
<glyph unicode="" d="M871.15 613.078l-0.086 0.064c-17.914 16.446-46.006 15.236-62.432-2.7l-80.6-87.932-44.562 29.792-59.626 50.34c14.004-2.336 28.518-2.614 43.308 0.318 65.322 12.92 107.8 76.35 94.9 141.714-12.984 65.364-76.434 107.842-141.798 94.9-65.278-12.962-107.758-76.414-94.858-141.778 1.722-8.478 4.336-16.552 7.606-24.202l-104.654 70.038c-12.962 8.692-28.964 9.436-42.33 3.592-3.634-1.34-7.182-2.976-10.498-5.356l-126.074-90.332c-19.784-14.174-24.352-41.968-10.18-61.73l0.042-0.022c14.194-19.762 41.948-24.372 61.73-10.156l102.976 73.822 70.74-47.322-48.81-72.992h-0.042l-108.266-161.752-110.264 73.8c-20.208 13.514-47.832 8.054-61.368-12.154s-8.032-47.854 12.176-61.37l161.688-108.226c20.25-13.514 47.834-8.076 61.412 12.154 1.678 2.506 3.038 5.12 4.144 7.82l0.786-0.53 55.992 83.66c0.83-0.446 1.444-1.062 2.296-1.466l153.762-76.732-19.168-176.246c-2.614-24.202 15.024-46.112 39.206-48.746 2.104-0.234 4.144-0.106 6.206-0.020 1.084-0.234 1.996-0.892 3.166-1l73.63-7.97c19.656-2.126 37.506 12.198 39.61 31.852l1.784 16.532c2.146 19.656-12.22 37.462-31.874 39.588l-39.014 4.25 16.236 149.49c1.020 9.668-1.254 18.912-5.822 26.754-1.678 14.322-10.264 27.602-24.076 34.488l-86.74 43.286 55.61 83.064 3.166-2.126 61.454-51.848c12.558-10.582 29.302-12.75 43.732-7.5 12.366-0.254 24.736 4.356 33.682 14.090l104.802 114.28c16.426 17.936 15.216 46.070-2.698 62.518z"/>
<glyph unicode="" d="M385.404 460.632l29.132 16.892-32.258 60.328 57.31 18.106-126.69 80.070v-153.254l40.692 38.206 31.81-60.348zM755.956 767.328h-553.788c-45.708 0-83.086-37.378-83.086-83.064v-387.658c0-45.688 37.378-83.066 83.086-83.066h398.070l-6.756 317.596h247.176l-1.658 153.126c0 45.688-37.378 83.066-83.044 83.066zM590.082 297.052h-387.914v386.764h553.788l0.234-143.37-162.71-9.308-3.4-234.086zM904.918 178.204v330.306c0 27.262-22.292 49.554-49.534 49.554h-231.218c-27.242 0-49.534-22.292-49.534-49.554v-330.306c0-27.242 22.292-49.534 49.534-49.534h231.218c27.242 0 49.534 22.292 49.534 49.534zM624.442 178.204v330.306h230.686v-330.306h-230.686z"/>
<glyph unicode="" d="M700.624 443.676c-50.702 0-100.49 0-150.914 0 0 112.41 0 224.332 0 337.082 115.428 0 230.814 0 347.452 0 0-3.91 0-7.714 0-11.538 0-92.35-0.702-184.722 0.298-277.052 0.49-45.368-2.826-89.758-16.298-132.576-29.77-94.646-87.548-160.712-166.788-203.87-49.15-26.754-101.34-39.928-155.994-40.48-2.678-0.020-5.356 0-8.67 0 0 49.914 0 99.256 0 148.726 15.066 3.996 30.302 7.438 45.262 12.070 76.286 23.63 104.486 87.698 106.078 162.198 0.042 1.446-0.212 2.91-0.424 5.44zM277.414 443.676c-50.702 0-100.49 0-150.914 0 0 112.41 0 224.332 0 337.082 115.428 0 230.814 0 347.452 0 0-3.91 0-7.714 0-11.538 0-92.35-0.702-184.722 0.298-277.052 0.488-45.368-2.826-89.758-16.298-132.576-29.772-94.646-87.548-160.712-166.788-203.87-49.15-26.754-101.34-39.928-155.994-40.48-2.676-0.020-5.354 0-8.67 0 0 49.914 0 99.256 0 148.726 15.066 3.996 30.302 7.438 45.262 12.070 76.286 23.63 104.486 87.698 106.078 162.198 0.042 1.446-0.212 2.91-0.426 5.44z"/>
<glyph unicode="" d="M533.876 479.014v21.44c0 21.824 38.632 27.030 57.904 59.944 11.37 19.38 14.26 36.38 14.26 54.76 0 24.352-22.652 101.552-101.552 101.552-72.972 0-105.016-61.56-105.016-96.644 0-37.144 52.402-48.854 56.164-2.634 2.402 29.472 25.16 42.328 48.406 42.328 13.856 0 44.88-11.092 44.88-45.772 0 0 2.528-29.516-25.562-43.202 0 0-43.434-17.298-43.434-57.076v-35.104h0.83c-160.158-12.006-294.308-115.854-351.278-258.862l101.87-40.502c44.432 111.582 153.168 190.652 280.644 190.652 127.454 0 236.212-79.048 280.644-190.652l101.85 40.502c-58.012 145.816-196.39 250.64-360.608 259.266z"/>
<glyph unicode="" d="M512.606 534.9c-47.94 0-86.826-39.058-86.826-86.996 0-47.854 38.888-86.826 86.826-86.826 47.898 0 86.954 38.972 86.954 86.826 0 47.94-39.058 86.996-86.954 86.996zM839.448 792.17c-14.152 14.152-37.058 14.152-51.212 0-14.11-14.152-14.11-37.058 0-51.19 78.24-78.264 121.356-182.28 121.356-292.97 0-110.648-43.116-214.706-121.356-292.99-14.11-14.152-14.11-37.082 0-51.212 7.096-7.054 16.362-10.582 25.606-10.582 9.264 0 18.508 3.548 25.606 10.604 91.884 91.968 142.52 214.198 142.52 344.18 0 130.026-50.638 252.234-142.52 344.16zM712.076 664.692c-14.152 14.174-37.102 14.152-51.212 0.042-14.152-14.11-14.152-37.058-0.042-51.19 44.242-44.264 68.616-103.082 68.616-165.534 0-62.474-24.352-121.272-68.572-165.576-14.152-14.13-14.152-37.058 0-51.19 7.096-7.054 16.342-10.582 25.606-10.582 9.308 0 18.552 3.548 25.606 10.626 57.864 57.97 89.78 134.914 89.78 216.704-0.020 81.79-31.938 158.778-89.78 216.704zM114.45 448.012c0 110.646 43.074 214.708 121.314 292.968 14.152 14.13 14.152 37.082 0 51.212-14.152 14.088-37.058 14.13-51.212-0.020-91.884-91.97-142.52-214.198-142.52-344.16 0-130.048 50.638-252.254 142.52-344.182 7.098-7.054 16.342-10.604 25.606-10.604s18.55 3.548 25.606 10.604c14.152 14.13 14.152 37.058 0 51.212-78.22 78.24-121.314 182.258-121.314 292.968zM294.584 448.012c0 62.454 24.352 121.252 68.572 165.536 14.152 14.174 14.152 37.082 0 51.19-14.194 14.174-37.102 14.13-51.168-0.042-57.906-57.968-89.78-134.914-89.78-216.682 0-81.79 31.874-158.776 89.78-216.704 7.056-7.076 16.362-10.626 25.606-10.626 9.308 0 18.508 3.548 25.562 10.582 14.194 14.152 14.194 37.058 0.084 51.19-44.262 44.264-68.658 103.082-68.658 165.556z"/>
<glyph unicode="" d="M534.938 934.096c-267.046 0-401.726-191.458-401.726-351.108 0-96.686 36.612-182.682 115.108-214.75 12.878-5.27 24.416-0.17 28.134 14.068 2.592 9.88 8.734 34.764 11.496 45.114 3.762 14.090 2.296 19.040-8.074 31.322-22.63 26.69-37.102 61.284-37.102 110.222 0 142.054 106.29 269.19 276.734 269.19 150.936 0 233.874-92.224 233.874-215.386 0-162.072-71.718-298.856-178.2-298.856-58.798 0-102.826 48.64-88.716 108.288 16.894 71.208 49.618 148.046 49.618 199.45 0 46.006-24.692 84.382-75.798 84.382-60.116 0-108.394-62.198-108.394-145.496 0-53.038 17.936-88.952 17.936-88.952s-61.518-260.648-72.29-306.294c-21.484-90.906-3.23-202.36-1.678-213.602 0.914-6.672 9.456-8.246 13.346-3.208 5.568 7.226 77.158 95.624 101.488 183.938 6.906 25.010 39.546 154.506 39.546 154.506 19.528-37.25 76.606-70.060 137.316-70.060 180.686 0 303.274 164.726 303.274 385.214-0.042 166.746-141.268 322.018-355.89 322.018z"/>
<glyph unicode="" d="M399.77 615.16l-82.278-82.322c0 0 72.61-198.494 271.146-271.102l72.588 72.61 193.668-48.408c0 0 33.828-9.712 33.828-53.252 0 0 14.6-101.616-116.15-154.91-227.54-62.942-682.624 363.092-634.216 634.196 0 0 48.384 125.862 159.754 111.348 0 0 34.914-5.8 43.582-33.892l58.074-174.268z"/>
<glyph unicode="" d="M394.118 529.738v61.198c0 65.004 52.89 117.894 117.872 117.894 65.174 0 118.192-52.89 118.192-117.894v-61.198h105.398v61.198c0 123.142-100.32 223.27-223.588 223.27-123.312 0-223.588-100.128-223.588-223.27v-61.198h105.716zM251.342 487.238c-15.958 0-28.942-13.026-28.942-28.942v-347.538c0-15.938 12.984-28.942 28.942-28.942h521.298c15.894 0 28.942 13.004 28.942 28.942v347.538c0 15.916-13.048 28.942-28.942 28.942h-521.298zM539.316 259.76l7.31-62.39c0-25.182-9.434-34.594-34.638-34.594-25.224 0-34.638 9.414-34.638 34.594l7.266 62.39c-28.326 11.028-48.492 38.398-48.492 70.634 0 41.884 33.956 75.84 75.84 75.84 41.926 0 75.884-33.978 75.884-75.84 0-32.236-20.188-59.606-48.534-70.634z"/>
<glyph unicode="" d="M903.918 809.254h-783.836c-23.376 0-42.498-19.126-42.498-42.5v-465.26c0-23.376 19.126-42.5 42.498-42.5h783.858c23.376 0 42.5 19.126 42.5 42.5v465.262c-0.020 23.376-19.146 42.498-42.52 42.498zM867.264 374.826h-710.524v355.252h710.504v-355.252zM649.304 129.266h-42.5v85h-191.248v-85h-42.5c-11.688 0-21.25-9.562-21.25-21.25s9.562-21.25 21.25-21.25h276.246c11.688 0 21.25 9.562 21.25 21.25 0 11.666-9.562 21.25-21.25 21.25z"/>
<glyph unicode="" d="M441.378 423.126l41.458 24.034-45.9 85.826 81.556 25.754-180.24 113.918v-218.044l57.904 54.356 45.218-85.85zM801.622 810.020h-579.202c-47.812 0-86.912-39.098-86.912-86.868v-405.466c0-47.77 39.098-86.87 86.912-86.87h216.514c-1.616-22.248-7.266-64.664-26.988-86.89h-44.73v-57.928h289.612v57.928h-44.73c-19.762 22.226-25.35 64.64-26.986 86.89h216.534c47.77 0 86.87 39.1 86.87 86.87v405.444c-0.020 47.79-39.12 86.89-86.89 86.89zM801.622 361.12h-579.202v362.010h579.222v-362.010z"/>
<glyph unicode="" d="M815.096 414.076c32.428-54.994 54.612-109.586 69.062-162.922h104.676v35.36c-43.54 58.246-103.678 103.274-173.736 127.562zM695.416 434.538c-6.29 0-12.366-0.636-18.53-0.934-19.422-28.368-59.86-93.732-88.61-182.45h220.040c-18.784 59.52-49.066 120.868-94.2 182.428-6.246 0.318-12.432 0.956-18.7 0.956zM905.298 67.748h10.178c40.332 0 73.376 33 73.376 73.376v36.656h-89.312c5.546-37.888 6.672-74.438 5.76-110.030zM568.832 177.778c-7.034-34.488-11.496-71.4-12.304-110.030h277.818c0.786 35.36-1.446 72.1-8.032 110.030h-257.482zM35.168 141.124c0-40.352 33.042-73.376 73.376-73.376h146.708c0 243.076 197.090 440.144 440.166 440.144 112.878 0 215.514-42.86 293.438-112.772v186.126h-953.684v-440.122zM915.456 828.252h-806.914c-40.332 0-73.376-33.042-73.376-73.376v-110.030h953.684v110.030c-0.020 40.332-33.044 73.376-73.396 73.376zM126.86 681.524c-30.388 0-55.016 24.65-55.016 55.014s24.628 55.038 55.016 55.038 55.036-24.628 55.036-55.016-24.67-55.036-55.038-55.036zM273.588 681.524c-30.388 0-55.014 24.65-55.014 55.014s24.628 55.014 55.014 55.014 55.014-24.628 55.014-55.014-24.628-55.014-55.014-55.014zM420.298 681.524c-30.366 0-55.014 24.65-55.014 55.014s24.65 55.014 55.014 55.014c30.388 0 55.036-24.628 55.036-55.014s-24.67-55.014-55.036-55.014zM378.244 251.154h135.638c19.442 67.044 45.368 123.568 67.786 165.13-86.336-28.262-158.544-87.782-203.424-165.13zM328.584 67.748h156.334c1 38.312 5.1 75.224 11.56 110.030h-150.958c-10.964-34.744-16.936-71.718-16.936-110.030z"/>
<glyph unicode="" d="M897.778 169.384h-771.596l0.042 421.53h-78.624l-0.042-428.712c0-39.29 32.192-71.462 71.462-71.462h785.898c39.332 0 71.462 32.172 71.462 71.462l0.042 428.712h-78.624l-0.020-421.53zM904.98 805.26h-785.898c-39.332 0-71.462-32.172-71.462-71.462v-107.206h928.844v107.206c-0.020 39.29-32.214 71.462-71.484 71.462zM136.954 662.336c-29.664 0-53.592 24.012-53.592 53.57 0 29.6 23.948 53.592 53.592 53.592 29.58 0 53.528-23.99 53.528-53.592 0-29.558-23.948-53.57-53.528-53.57zM279.816 662.336c-29.58 0-53.612 24.012-53.612 53.57 0 29.6 24.034 53.592 53.612 53.592 29.666 0 53.612-23.99 53.612-53.592 0-29.558-23.948-53.57-53.612-53.57zM422.72 662.336c-29.58 0-53.548 24.012-53.548 53.57 0 29.6 23.97 53.592 53.548 53.592 29.666 0 53.612-23.99 53.612-53.592-0.022-29.558-23.97-53.57-53.612-53.57z"/>
<glyph unicode="" d="M962.568 332.794l-15.576 47.132c-10.986 33.278-27.858 63.324-48.81 89.418l2.104-1.062c-29.622 27.392-110.456 136.146-144.986 398.452-1 7.48-4.314 21.25-14.684 22.482 0 0-86.826 9.966-100.766-66.596 0 0-23.502-87.080 34.956-217.256-5.078 1.254-10.284 2.146-15.704 2.146h-466.664c-33.638 0-61.134-25.246-61.134-56.058 0-30.834 27.476-56.058 61.134-56.058h270.338c-4.548-16.128-7.63-33.064-7.63-50.936h-346.498c-33.638 0-61.156-25.222-61.156-56.034 0-30.832 27.518-56.058 61.156-56.058h343.056c0.064-13.494 1.19-27.136 3.442-40.864v-10.052h-303.466c-33.638 0-61.134-25.222-61.134-56.058 0-30.832 27.476-56.034 61.134-56.034h303.488c0-22.44 3.91-43.818 10.922-63.324l-153.572-8.010c-33.638 0-61.156-15.044-61.156-45.856s27.518-45.856 61.156-45.856h390.42c4.78 0 9.37 0.636 13.876 1.572 29.26-2.954 59.074-1.148 88.292 6.822 132.384 36.188 203.254 179.326 157.46 318.086z"/>
<glyph unicode="" d="M525.59 905.538l-18.168-67.766c203.636-31.024 364.432-192.012 395.54-395.646l67.85 18.232c-38.058 227.606-217.596 407.206-445.224 445.18zM698.052 388.32h3.89l64.492 17.276c-16.298 155.674-139.928 279.262-295.584 295.646l-17.298-64.556v-3.868c130.962-8.69 235.786-113.494 244.498-244.498zM576.226 405.85c0 7.204-0.744 14.196-2.082 21.016-8.372 41.162-40.864 73.438-82.046 81.812-6.8 1.402-13.79 2.336-21.016 2.336-31.874 0-60.052-14.472-79.368-36.868l-256.058 256.142c-126.138-184.278-107.63-437.702 55.972-601.408 163.602-163.6 417.068-182.088 601.344-55.972l-253.572 253.592c22.356 19.274 36.826 47.45 36.826 79.346z"/>
<glyph unicode="" d="M404.274 735.264c0 19.486 16.448 35.912 35.912 35.912h143.604c19.486 0 35.912-16.448 35.912-35.912v-35.89h71.824v35.89c0 59.244-48.47 107.736-107.756 107.736h-143.606c-59.286 0-107.758-48.492-107.758-107.736v-35.89h71.824v35.89zM835.176 663.44h-646.35c-79.006 0-143.648-64.642-143.648-143.626v-323.166c0-79.006 64.642-143.626 143.648-143.626h646.35c79.006 0 143.648 64.64 143.648 143.626v323.164c0 79.006-64.64 143.626-143.648 143.626zM815.010 200.154h-605.976c-14.556 0-26.35 11.794-26.35 26.35s11.794 26.35 26.35 26.35h605.976c14.556 0 26.35-11.794 26.35-26.35s-11.794-26.35-26.35-26.35zM815.010 331.88h-605.976c-14.556 0-26.35 11.794-26.35 26.35s11.794 26.35 26.35 26.35h605.976c14.556 0 26.35-11.794 26.35-26.35-0.020-14.556-11.794-26.35-26.35-26.35zM815.010 463.63h-605.976c-14.556 0-26.35 11.794-26.35 26.35s11.794 26.35 26.35 26.35h605.976c14.556 0 26.35-11.794 26.35-26.35-0.020-14.556-11.794-26.35-26.35-26.35z"/>
<glyph unicode="" d="M740.466 931.1l26.18-26.18-456.932-456.91 456.932-456.932-26.18-26.18-483.11 483.11z"/>
<glyph unicode="" d="M304.784 931.1l-26.18-26.18 456.932-456.91-456.932-456.932 26.18-26.18 483.11 483.11z"/>
<glyph unicode="" d="M995.1 219.534l-26.18-26.18-456.932 456.932-456.91-456.932-26.18 26.18 483.090 483.11z"/>
<glyph unicode="" d="M28.9 676.466l26.18 26.18 456.91-456.932 456.932 456.932 26.18-26.18-483.11-483.11z"/>
<glyph unicode="" d="M894.206 519.408c12.198 11.964 8.394 23.63-8.5 26.116l-217.872 31.556c-16.914 2.528-36.996 17-44.582 32.298l-97.43 196.708c-7.63 15.3-19.996 15.3-27.668 0l-97.366-196.708c-7.522-15.32-27.646-29.77-44.688-32.298l-217.808-31.576c-16.936-2.464-20.698-14.152-8.414-26.116l157.48-153.082c12.282-11.856 19.952-35.424 17.128-52.274l-37.166-216.236c-3.016-16.894 7.034-24.054 22.226-16.172l194.838 102.274c15.13 7.884 40.056 7.884 55.27 0l194.648-102.274c15.322-7.884 25.246-0.722 22.418 16.172l-37.208 216.236c-2.89 16.85 4.846 40.438 17.062 52.274l157.63 153.104z"/>
<glyph unicode="" d="M78.602 213.052h868.836v28.942h-868.836v-28.942zM78.602 155.126h868.836v28.962h-868.836v-28.962zM482.56 574.466v-0.83c0-10.54 5.652-16.638 27.646-22.694v43.858c-19.89-1.656-27.646-9.774-27.646-20.336zM547.966 473.36v-44.602c18.636 1.976 27.222 8.86 27.222 20.654v0.83c0.020 10.986-6.14 17.062-27.222 23.12zM78.602 734.35v-463.392h868.836v463.39h-868.836zM645.332 454.748c0-49.554-38.1-80.006-95.75-85.254v-39.822h-42.244v40.63c-39.758 4.080-79.176 18.254-109.606 40.182l36.528 53.996c25.988-18.296 50.382-29.198 75.544-33.278v48.726c-65.322 15.024-98.662 37.336-98.662 87.676v0.828c0 47.876 34.956 81.152 97.068 85.594v23.204h42.158v-24.416c33.318-3.592 61.304-14.98 85.658-31.62l-33.234-54.4c-16.638 11.75-36.188 19.868-54.42 24.374v-47.132c64.534-15.024 96.962-38.144 96.962-88.526v-0.764z"/>
<glyph unicode="" d="M802.664 806.748h-579.222c-47.812 0-86.912-39.1-86.912-86.87v-405.466c0-47.77 39.098-86.89 86.912-86.89h216.514c-1.616-22.248-7.266-64.664-26.988-86.89h-44.73v-57.928h289.612v57.928h-44.73c-19.762 22.226-25.35 64.64-26.986 86.89h216.514c47.77 0 86.87 39.12 86.87 86.89v405.464c0.020 47.77-39.078 86.87-86.846 86.87zM802.664 357.87h-579.222v362.010h579.222v-362.010zM605.744 470.174l-57.246 16.746c16.872 13.048 25.436 36.4 32.49 63.664 0.87-0.404 1.742-0.722 2.72-0.83 7.714-0.956 15.342 9.562 17.086 23.48 1.7 13.792-3.144 25.776-10.752 26.86 0.382 41.926-24.736 79.474-77.030 79.474-52.762 0-75.798-37.356-76.158-79.686-7.182-1.722-11.666-13.26-10.050-26.626 1.722-13.918 9.37-24.438 17.106-23.48 0.084 0 0.17 0.064 0.234 0.084 6.46-27.858 15.45-50.532 32.662-63.154l-56.334-16.532c-43.202-10.836-80.62-20.486-80.62-61.114v-37.336h128.264l29.516 68.87-20.91 20.91 17.084 17.106c5.78-1.636 11.964-2.784 19.166-2.784 7.182 0 13.514 1 19.21 2.74l17.062-17.062-20.91-20.91 29.516-68.87h128.264v37.336c0.064 40.63-36.23 48.788-80.366 61.114z"/>
<glyph unicode="" d="M356.57 161.416c0-58.054-47.068-105.122-105.122-105.122s-105.122 47.068-105.122 105.122c0 58.054 47.068 105.122 105.122 105.122 58.034 0 105.122-47.068 105.122-105.122zM146.304 568.39v-155.74c195.624-2.020 354.36-160.754 356.358-356.358h155.74c-1.996 281.942-230.154 510.076-512.096 512.096zM146.304 677.422c165.364-0.722 320.722-65.428 437.744-182.428 117.234-117.234 181.982-272.974 182.45-438.722h155.76c-0.976 428.33-347.75 775.422-775.952 776.908v-155.76z"/>
<glyph unicode="" d="M538.084 242.548h-52.168c0 0-52.168-130.409-130.43-156.483h313.029c-78.263 26.073-130.43 156.483-130.43 156.483zM746.734 685.986l-1.551-3.655c0.977 17.828 1.551 36.379 1.551 55.823h-469.49c0-19.465 0.574-37.994 1.551-55.823l-1.551 3.655h-182.62c0 0 52.189-268.829 339.123-373.165h156.483c286.934 104.336 339.123 373.165 339.123 373.165h-182.62zM335.893 425.146c-101.148 77.519-150.873 141.735-173.376 208.65h120.231c9.541-87.421 30.493-152.743 53.889-200.809l-0.744-7.841zM575.037 529.482l13.26-84.531-76.244 38.781-76.329-38.781 13.387 84.531-60.498 60.519 84.489 13.494 38.951 76.223 38.887-76.223 84.489-13.494-60.392-60.519zM688.085 425.146l-0.722 7.841c23.396 48.067 44.327 113.388 53.868 200.809h120.231c-22.482-66.936-72.228-131.132-173.376-208.65z"/>
</font>
</defs>
</svg>
